<svg t="1613112116193" class="icon" viewBox="0 0 1024 1024" version="1.1" xmlns="http://www.w3.org/2000/svg" p-id="2210" width="20" height="20"><path d="M941.568 858.624l-176.128-176.128c46.592-62.976 71.68-138.752 71.68-217.088 0-201.216-163.84-364.544-364.544-364.544-201.216 0-364.544 163.84-364.544 364.544 0 201.216 163.84 364.544 364.544 364.544 74.752 0 148.48-23.552 209.92-67.072l177.664 177.664c14.336 14.336 37.888 14.336 52.224 0l29.696-29.696c14.336-14.336 14.336-37.888-0.512-52.224z m-469.504-142.848c-138.24 0-251.392-112.64-251.392-251.392 0-138.24 112.64-251.392 251.392-251.392 138.24 0 251.392 112.64 251.392 251.392 0 139.264-113.152 251.392-251.392 251.392z" fill="#8a8a8a" p-id="2211"></path></svg>
